<?xml version="1.0" encoding="UTF-8"?>
<svg width="279px" height="39px" viewBox="0 0 279 39" version="1.1" xmlns="http://www.w3.org/2000/svg" xmlns:xlink="http://www.w3.org/1999/xlink">
    <!-- Generator: Sketch 47.1 (45422) - http://www.bohemiancoding.com/sketch -->
    <title>Group 2</title>
    <desc>Created with Sketch.</desc>
    <defs>
        <polygon id="path-1" points="0 0 224.408451 0 224.408451 45.8571429 0 45.8571429"></polygon>
        <polygon id="path-3" points="0 0 224.408451 0 224.408451 45.8571429 0 45.8571429"></polygon>
        <polygon id="path-5" points="0 0 224.408451 0 224.408451 45.8571429 0 45.8571429"></polygon>
    </defs>
    <g id="Symbols" stroke="none" stroke-width="1" fill="none" fill-rule="evenodd">
        <g id="Assistant-on-Right" transform="translate(-1530.000000, -53.000000)">
            <g id="Assistant">
                <g id="logo_lockup_assistant_icon_horizontal_color_light" transform="translate(1490.000000, 19.000000)">
                    <g id="Clipped" transform="translate(10.000000, 0.000000)">
                        <g id="Group-2" transform="translate(30.000000, 30.000000)">
                            <g id="Group" transform="translate(54.033803, 0.571429)">
                                <g id="Clipped">
                                    <mask id="mask-2" fill="white">
                                        <use xlink:href="#path-1"></use>
                                    </mask>
                                    <g id="c"></g>
                                    <polygon id="Shape" mask="url(#mask-2)" points="0 9.79241071 224.408451 9.79241071 224.408451 42.2745536 0 42.2745536"></polygon>
                                </g>
                                <g id="Clipped">
                                    <mask id="mask-4" fill="white">
                                        <use xlink:href="#path-3"></use>
                                    </mask>
                                    <g id="c"></g>
                                    <g id="Group" mask="url(#mask-4)" fill-rule="nonzero" fill="#FFFFFF">
                                        <g transform="translate(105.042254, 12.180804)" id="Shape">
                                            <path d="M0.127960563,22.2120536 L8.37855211,0.322910714 L11.5567965,0.322910714 L19.807388,22.2120536 L16.6904979,22.2120536 L14.5820134,16.2811964 L5.38413169,16.2811964 L3.24508944,22.2120536 L0.128199296,22.2120536 L0.127960563,22.2120536 Z M6.33094437,13.6520536 L13.6039268,13.6520536 L10.0284317,3.77748214 L9.9062007,3.77748214 L6.33070563,13.6520536 L6.33094437,13.6520536 Z M27.4465859,22.7011964 C25.7759366,22.7011964 24.3955859,22.2932589 23.3060113,21.4783393 C22.2161979,20.6634196 21.4162056,19.6440536 20.9072282,18.4211964 L23.4129634,17.3817679 C24.2074648,19.2571339 25.5620324,20.1941004 27.4769049,20.1941004 C28.3525754,20.1941004 29.0706824,20.0006406 29.6312261,19.6132433 C30.1912923,19.2263237 30.4718028,18.7166406 30.4718028,18.0846719 C30.4718028,17.1063862 29.7887894,16.4443237 28.4244338,16.0977679 L25.3992169,15.3640536 C24.4411838,15.1194821 23.5349556,14.6561339 22.6793387,13.9730536 C21.8237218,13.2906897 21.3959134,12.3680536 21.3959134,11.2063393 C21.3959134,9.88173661 21.9812852,8.80648214 23.1529838,7.98105357 C24.3242049,7.155625 25.7143437,6.74291071 27.3241162,6.74291071 C28.6481261,6.74291071 29.8298514,7.04384821 30.8688148,7.64476786 C31.9080169,8.24616518 32.6511908,9.10741964 33.099769,10.2280536 L30.6551493,11.2369107 C30.1048711,9.91230804 28.963969,9.24976786 27.2326817,9.24976786 C26.3971183,9.24976786 25.6942901,9.42316518 25.1241972,9.76948214 C24.553388,10.1162768 24.2685803,10.5848795 24.2685803,11.1757679 C24.2685803,12.0317679 24.9301077,12.612625 26.2548338,12.9183393 L29.2189352,13.6214821 C30.6243528,13.9477366 31.6633162,14.5080536 32.3355866,15.3029107 C33.007857,16.0977679 33.344231,16.9948482 33.344231,17.9931964 C33.344231,19.3383393 32.7939528,20.4594509 31.6941127,21.3560536 C30.5942725,22.2526562 29.1778732,22.7011964 27.4465859,22.7011964 L27.4465859,22.7011964 Z M41.0443056,22.7011964 C39.3736563,22.7011964 37.9935444,22.2932589 36.903731,21.4783393 C35.8139176,20.6634196 35.0139254,19.6440536 34.5049479,18.4211964 L37.0106831,17.3817679 C37.8051845,19.2571339 39.1597521,20.1941004 41.0748634,20.1941004 C41.9505338,20.1941004 42.6686408,20.0006406 43.2289458,19.6132433 C43.789012,19.2263237 44.0695225,18.7166406 44.0695225,18.0846719 C44.0695225,17.1063862 43.3867479,16.4443237 42.0221535,16.0977679 L38.9969366,15.3640536 C38.0389035,15.1194821 37.1329141,14.6561339 36.2772972,13.9730536 C35.4216803,13.2906897 34.9936331,12.3680536 34.9936331,11.2063393 C34.9936331,9.88173661 35.5790049,8.80648214 36.7507035,7.98105357 C37.9219246,7.155625 39.3120634,6.74291071 40.9218359,6.74291071 C42.2460845,6.74291071 43.4275711,7.04384821 44.4665345,7.64476786 C45.5057366,8.24616518 46.2491493,9.10741964 46.6974887,10.2280536 L44.252869,11.2369107 C43.7028296,9.91230804 42.5616887,9.24976786 40.8304014,9.24976786 C39.994838,9.24976786 39.2920099,9.42316518 38.7219169,9.76948214 C38.1513465,10.1162768 37.8663,10.5848795 37.8663,11.1757679 C37.8663,12.0317679 38.5280662,12.612625 39.8525535,12.9183393 L42.8166549,13.6214821 C44.2223113,13.9477366 45.2610359,14.5080536 45.9335451,15.3029107 C46.6060542,16.0977679 46.9421894,16.9948482 46.9421894,17.9931964 C46.9421894,19.3383393 46.3919113,20.4594509 45.2920711,21.3560536 C44.1919923,22.2526562 42.775593,22.7011964 41.0443056,22.7011964 L41.0443056,22.7011964 Z M51.9835014,3.47176786 C51.5965162,3.85916518 51.1278845,4.052625 50.5778451,4.052625 C50.0278056,4.052625 49.5586965,3.85916518 49.1721887,3.47176786 C48.7847261,3.08484821 48.5913528,2.61576786 48.5913528,2.06548214 C48.5913528,1.51519643 48.7847261,1.04659375 49.1721887,0.659196429 C49.5586965,0.272276786 50.0278056,0.0783392857 50.5778451,0.0783392857 C51.1278845,0.0783392857 51.5965162,0.272276786 51.9835014,0.659196429 C52.3702479,1.04659375 52.5640986,1.51519643 52.5640986,2.06548214 C52.5640986,2.61576786 52.3702479,3.08484821 51.9835014,3.47176786 Z M51.9835014,22.2120536 L49.1724275,22.2120536 L49.1724275,7.23205357 L51.9835014,7.23205357 L51.9835014,22.2120536 Z M60.7530972,22.7011964 C59.0824479,22.7011964 57.7023359,22.2932589 56.6125225,21.4783393 C55.5224704,20.6634196 54.7227169,19.6440536 54.2135007,18.4211964 L56.7192359,17.3817679 C57.5137373,19.2571339 58.8683049,20.1941004 60.7834162,20.1941004 C61.6590866,20.1941004 62.3774324,20.0006406 62.9377373,19.6132433 C63.4978035,19.2263237 63.7780754,18.7166406 63.7780754,18.0846719 C63.7780754,17.1063862 63.0955394,16.4443237 61.7307063,16.0977679 L58.7054894,15.3640536 C57.7476951,15.1194821 56.8414669,14.6561339 55.98585,13.9730536 C55.1302331,13.2906897 54.7024246,12.3680536 54.7024246,11.2063393 C54.7024246,9.88173661 55.2875577,8.80648214 56.4592563,7.98105357 C57.6304775,7.155625 59.0208549,6.74291071 60.6306275,6.74291071 C61.9546373,6.74291071 63.1363627,7.04384821 64.1753261,7.64476786 C65.2142894,8.24616518 65.9579408,9.10741964 66.4060415,10.2280536 L63.9614218,11.2369107 C63.4116211,9.91230804 62.2702415,9.24976786 60.5389542,9.24976786 C59.7033908,9.24976786 59.0008014,9.42316518 58.4304697,9.76948214 C57.860138,10.1162768 57.5748528,10.5848795 57.5748528,11.1757679 C57.5748528,12.0317679 58.236619,12.612625 59.5611063,12.9183393 L62.5252077,13.6214821 C63.9311028,13.9477366 64.9698275,14.5080536 65.6423366,15.3029107 C66.3143683,16.0977679 66.6507423,16.9948482 66.6507423,17.9931964 C66.6507423,19.3383393 66.1007028,20.4594509 65.0006239,21.3560536 C63.9005451,22.2526562 62.4843845,22.7011964 60.7530972,22.7011964 L60.7530972,22.7011964 Z M75.1149993,22.456625 C73.54605,22.456625 72.3495232,22.0391339 71.5247028,21.2031964 C70.6994049,20.3677366 70.2868754,19.1854821 70.2868754,17.6566719 L70.2868754,9.79981473 L67.6586704,9.79981473 L67.6586704,7.23181473 L70.2868754,7.23181473 L70.2868754,2.64610045 L73.098188,2.64610045 L73.098188,7.23181473 L76.7648789,7.23181473 L76.7648789,9.79981473 L73.098188,9.79981473 L73.098188,17.4426719 C73.098188,19.0734665 73.7702197,19.8881473 75.1147606,19.8881473 C75.6239768,19.8881473 76.0515465,19.806942 76.3984246,19.6438147 L77.3762725,22.0589576 C76.7648789,22.3233527 76.010962,22.4563862 75.1147606,22.4563862 L75.1149993,22.456625 Z M84.1901725,22.7011964 C82.6014085,22.7011964 81.2719077,22.242625 80.2023866,21.3254821 C79.1331042,20.4083393 78.5981049,19.1959911 78.5981049,17.6874821 C78.5981049,16.057404 79.2293134,14.7784196 80.4929239,13.8510067 C81.7555796,12.9238326 83.3140246,12.4600067 85.1682592,12.4600067 C86.8183775,12.4600067 88.1729451,12.765721 89.2322007,13.3771496 L89.2322007,12.9491496 C89.2322007,11.848817 88.8550035,10.9672612 88.1015641,10.304721 C87.3476472,9.64265848 86.4211268,9.31114955 85.3210479,9.31114955 C84.5060155,9.31114955 83.7671387,9.50508705 83.1056113,9.8920067 C82.4436063,10.279404 81.9902535,10.8091496 81.7460303,11.481721 L79.1791796,10.3811496 C79.5251028,9.48454687 80.2076387,8.65386384 81.2263099,7.88957812 C82.244981,7.12529241 83.5892831,6.74314955 85.2599324,6.74314955 C87.1748049,6.74314955 88.7638077,7.3039442 90.0271796,8.42457812 C91.2900739,9.54568973 91.9217599,11.1253728 91.9217599,13.1631496 L91.9217599,22.2122924 L89.2326782,22.2122924 L89.2326782,20.1334353 L89.1104472,20.1334353 C87.9898373,21.8454353 86.3497458,22.7014353 84.19065,22.7014353 L84.1901725,22.7011964 Z M84.6487775,20.1331964 C85.8097331,20.1331964 86.8639754,19.7004196 87.8112655,18.8339107 C88.7585556,17.9681183 89.2322007,16.9439754 89.2322007,15.761721 C88.4376993,15.1096897 87.2459472,14.7834353 85.6567056,14.7834353 C84.2918725,14.7834353 83.2629359,15.0788795 82.5703732,15.6700067 C81.8775718,16.2613728 81.5314099,16.9540067 81.5314099,17.7488638 C81.5314099,18.4823393 81.8470141,19.0634353 82.4787,19.4914353 C83.1099085,19.9194353 83.8335063,20.1331964 84.6485387,20.1331964 L84.6487775,20.1331964 Z M97.4827923,7.23205357 L97.4827923,9.31091071 L97.6050232,9.31091071 C98.0123007,8.59773661 98.6540134,7.9915625 99.5299225,7.49191071 C100.405593,6.99273661 101.343095,6.74291071 102.341474,6.74291071 C104.194992,6.74291071 105.610914,7.31373661 106.588762,8.45491071 C107.56661,9.5965625 108.055773,11.1251339 108.055773,13.040625 L108.055773,22.2120536 L105.24446,22.2120536 L105.24446,13.468625 C105.24446,10.6971339 104.011646,9.31091071 101.547211,9.31091071 C100.385778,9.31091071 99.4387268,9.77473661 98.7053408,10.7019107 C97.9719549,11.6295625 97.605262,12.7043393 97.605262,13.9271964 L97.605262,22.2118147 L94.7939493,22.2118147 L94.7939493,7.23181473 L97.4832697,7.23181473 L97.4827923,7.23205357 Z M117.070069,22.456625 C115.50112,22.456625 114.304593,22.0391339 113.479534,21.2031964 C112.654475,20.3677366 112.241945,19.1854821 112.241945,17.6566719 L112.241945,9.79981473 L109.61374,9.79981473 L109.61374,7.23181473 L112.241945,7.23181473 L112.241945,2.64610045 L115.053019,2.64610045 L115.053019,7.23181473 L118.71971,7.23181473 L118.71971,9.79981473 L115.053019,9.79981473 L115.053019,17.4426719 C115.053019,19.0734665 115.725289,19.8881473 117.06983,19.8881473 C117.578808,19.8881473 118.006616,19.806942 118.353256,19.6438147 L119.331104,22.0589576 C118.71971,22.3233527 117.966032,22.4563862 117.06983,22.4563862 L117.070069,22.456625 Z"></path>
                                        </g>
                                    </g>
                                </g>
                                <g id="Clipped">
                                    <mask id="mask-6" fill="white">
                                        <use xlink:href="#path-5"></use>
                                    </mask>
                                    <g id="c"></g>
                                    <g id="Group" mask="url(#mask-6)">
                                        <g transform="translate(0.000000, 9.792411)" id="Shape">
                                            <path d="M0.172603521,12.5545871 C0.172603521,5.64520536 5.97881408,0.0198236607 12.8853423,0.0198236607 C16.7052993,0.0198236607 19.4251775,1.51782366 21.4725465,3.47463393 L19.0584845,5.88977679 C17.5914739,4.5140625 15.6052204,3.4440625 12.885581,3.4440625 C7.84331408,3.4440625 3.90112606,7.51030134 3.90112606,12.5548259 C3.90112606,17.5993504 7.84331408,21.6655893 12.885581,21.6655893 C16.1552599,21.6655893 18.0195211,20.3510179 19.2112732,19.1584933 C20.1893599,18.1802076 20.8308338,16.7739219 21.0755345,14.847683 L12.885581,14.847683 L12.885581,11.423683 L24.4063289,11.423683 C24.5287986,12.0351116 24.5899141,12.7688259 24.5899141,13.563683 C24.5899141,16.131683 23.8870859,19.3113504 21.6255739,21.573875 C19.4254162,23.8667321 16.6138648,25.0895893 12.8858197,25.0895893 C5.97929155,25.0895893 0.173080986,19.4642076 0.173080986,12.5548259 L0.172603521,12.5545871 Z" fill="#FFFFFF" fill-rule="nonzero"></path>
                                            <path d="M33.9,8.94715848 C29.4383303,8.94715848 25.8017197,12.3405871 25.8017197,17.0182545 C25.8017197,21.6653504 29.4380915,25.0893504 33.9,25.0893504 C38.361431,25.0893504 41.9980415,21.6653504 41.9980415,17.0182545 C41.9980415,12.3405871 38.3616697,8.94715848 33.9,8.94715848 L33.9,8.94715848 Z M33.9,21.9099219 C31.4551415,21.9099219 29.346657,19.8922076 29.346657,17.0182545 C29.346657,14.1137299 31.4551415,12.1265871 33.9,12.1265871 C36.3446197,12.1265871 38.4531042,14.1137299 38.4531042,17.0182545 C38.4531042,19.8922076 36.3446197,21.9099219 33.9,21.9099219 Z" fill="#FFFFFF" fill-rule="nonzero"></path>
                                            <path d="M51.5661972,8.94715848 C47.1045275,8.94715848 43.4679169,12.3405871 43.4679169,17.0182545 C43.4679169,21.6653504 47.1042887,25.0893504 51.5661972,25.0893504 C56.0276282,25.0893504 59.6644775,21.6653504 59.6644775,17.0182545 C59.6644775,12.3405871 56.0278669,8.94715848 51.5661972,8.94715848 Z M51.5661972,21.9099219 C49.1215775,21.9099219 47.0128542,19.8922076 47.0128542,17.0182545 C47.0128542,14.1137299 49.1215775,12.1265871 51.5661972,12.1265871 C54.0108169,12.1265871 56.1193014,14.1137299 56.1193014,17.0182545 C56.1193014,19.8922076 54.0108169,21.9099219 51.5661972,21.9099219 Z" fill="#FFFFFF" fill-rule="nonzero"></path>
                                            <path d="M73.2502606,9.43630134 L73.2502606,10.7508728 L73.1280296,10.7508728 C72.3335282,9.80315848 70.8054021,8.94715848 68.8802641,8.94715848 C64.8466415,8.94715848 61.1486768,12.493683 61.1486768,17.0488259 C61.1486768,21.5736362 64.8464028,25.0895893 68.8802641,25.0895893 C70.8054021,25.0895893 72.3335282,24.2335893 73.1280296,23.2553036 L73.2502606,23.2553036 L73.2502606,24.4170179 C73.2502606,27.504971 71.6001423,29.1558281 68.9413796,29.1558281 C66.7717796,29.1558281 65.427,27.5966853 64.8771993,26.2821138 L61.7906282,27.5661138 C62.6768028,29.7061138 65.0297493,32.3354955 68.9413796,32.3354955 C73.0974718,32.3354955 76.6118514,29.8895424 76.6118514,23.927875 L76.6118514,9.43630134 L73.2502606,9.43630134 L73.2502606,9.43630134 Z M69.1860803,21.9101607 C66.7414606,21.9101607 64.6938528,19.861875 64.6938528,17.0490647 C64.6938528,14.2059219 66.7414606,12.1268259 69.1860803,12.1268259 C71.6001423,12.1268259 73.4949613,14.2059219 73.4949613,17.0490647 C73.4949613,19.861875 71.6001423,21.9101607 69.1860803,21.9101607 Z" fill="#FFFFFF" fill-rule="nonzero"></path>
                                            <polygon fill="#FFFFFF" fill-rule="nonzero" points="79.0564711 0.875823661 82.6014085 0.875823661 82.6014085 24.6004464 79.0564711 24.6004464"></polygon>
                                            <path d="M92.3192493,21.9099219 C90.5161035,21.9099219 89.2326782,21.0844933 88.407619,19.4642076 L99.1952197,15.0005402 L98.8285268,14.0833973 C98.1562563,12.279683 96.1086486,8.94715848 91.9219986,8.94715848 C87.7659063,8.94715848 84.312881,12.2185402 84.312881,17.0182545 C84.312881,21.5430647 87.7353486,25.0893504 92.3192493,25.0893504 C96.0167366,25.0893504 98.1560176,22.8270647 99.0421923,21.5122545 L96.2917563,19.6779687 C95.3750239,21.0231116 94.1221563,21.909683 92.3190106,21.909683 L92.3192493,21.9099219 Z M92.0442296,12.0654442 C93.4501246,12.0654442 94.6418768,12.7685871 95.0391275,13.7774442 L87.8272606,16.7734442 C87.7353486,13.6549196 90.2413225,12.0652054 92.0442296,12.0652054 L92.0442296,12.0654442 Z" fill="#FFFFFF" fill-rule="nonzero"></path>
                                            <polygon fill="none" points="0 0 99.3126761 0 99.3126761 32.4821429 0 32.4821429"></polygon>
                                        </g>
                                    </g>
                                </g>
                            </g>
                            <g id="Group" transform="translate(0.557746, 0.571429)">
                                <ellipse id="Oval" fill="#34A853" fill-rule="nonzero" cx="39.1521127" cy="14.3303571" rx="2.86478873" ry="2.86607143"></ellipse>
                                <ellipse id="Oval" fill="#EA4335" fill-rule="nonzero" cx="30.5577465" cy="21.0178571" rx="5.72957746" ry="5.73214286"></ellipse>
                                <ellipse id="Oval" fill="#FBBC05" fill-rule="nonzero" cx="30.5577465" cy="35.3482143" rx="6.68450704" ry="6.6875"></ellipse>
                                <ellipse id="Oval" fill="#4285F4" fill-rule="nonzero" cx="11.4591549" cy="15.2857143" rx="11.4591549" ry="11.4642857"></ellipse>
                                <polygon id="Shape" points="0 0 42.0169014 0 42.0169014 45.8571429 0 45.8571429"></polygon>
                            </g>
                        </g>
                    </g>
                </g>
            </g>
        </g>
    </g>
</svg>