<svg xmlns="http://www.w3.org/2000/svg" width="112.37" height="118.257" viewBox="0 0 112.37 118.257">
  <g id="Group_84" data-name="Group 84" transform="translate(-709.428 -607.787)">
    <g id="Group_82" data-name="Group 82" transform="translate(123 -86)">
      <path id="Path_27" data-name="Path 27" d="M14566.277,808.387c-58.929-28.007-51.539-98.043-51.539-98.043" transform="translate(-13926 0.991)" fill="none" stroke="#fbbc05" stroke-linecap="round" stroke-width="4"/>
      <path id="Path_31" data-name="Path 31" d="M14514.441,808.387c58.929-28.007,51.539-98.043,51.539-98.043" transform="translate(-13873 0.991)" fill="none" stroke="#4285f4" stroke-linecap="round" stroke-width="4"/>
      <path id="Path_29" data-name="Path 29" d="M14514.738,710.345s12.466-1.217,25.69-3.357,27.279-11.74,27.279-11.74,13.033,9.6,25.83,11.74,25.288,3.357,25.288,3.357" transform="translate(-13926 0.991)" fill="none" stroke="#34a853" stroke-linecap="round" stroke-width="4"/>
      <path id="ic_fingerprint_48px" d="M42.383,10.068a1.317,1.317,0,0,1-.565-.135A28.714,28.714,0,0,0,14.451,9.92a1.231,1.231,0,0,1-1.179-2.162,31.212,31.212,0,0,1,29.675-.012,1.229,1.229,0,0,1-.565,2.321ZM7.229,22.965a1.28,1.28,0,0,1-.712-.221,1.223,1.223,0,0,1-.295-1.707,25.585,25.585,0,0,1,9.224-8.045,28.344,28.344,0,0,1,25.339-.025A25.7,25.7,0,0,1,50,20.95a1.221,1.221,0,0,1-.283,1.707A1.235,1.235,0,0,1,48,22.375a23.062,23.062,0,0,0-8.328-7.222,25.846,25.846,0,0,0-23.092.025,23.067,23.067,0,0,0-8.34,7.284,1.25,1.25,0,0,1-1.007.5ZM22.595,52.6a1.219,1.219,0,0,1-.872-.368,25.742,25.742,0,0,1-4.938-6.473,21.86,21.86,0,0,1-2.592-10.674c0-7.3,6.24-13.241,13.916-13.241S42.026,27.78,42.026,35.088a1.228,1.228,0,0,1-2.457,0c0-5.945-5.134-10.784-11.46-10.784S16.65,29.143,16.65,35.088a19.457,19.457,0,0,0,2.272,9.47A23.288,23.288,0,0,0,23.455,50.5a1.212,1.212,0,0,1-.012,1.732,1.1,1.1,0,0,1-.848.368Zm17.6-4.545a13.343,13.343,0,0,1-7.615-2.174A13.1,13.1,0,0,1,26.747,35.1a1.228,1.228,0,0,1,2.457,0A10.628,10.628,0,0,0,40.2,45.6a16.123,16.123,0,0,0,2.567-.233,1.229,1.229,0,1,1,.43,2.42,17.59,17.59,0,0,1-3,.27Zm-4.95,5.073a.916.916,0,0,1-.319-.049A18.761,18.761,0,0,1,25.8,47.923,17.984,17.984,0,0,1,20.482,35.1a7.41,7.41,0,0,1,7.566-7.235A7.41,7.41,0,0,1,35.615,35.1a5.121,5.121,0,0,0,10.219,0c0-9.261-7.984-16.791-17.8-16.791a17.921,17.921,0,0,0-16.238,9.9A15.78,15.78,0,0,0,10.361,35.1a24.509,24.509,0,0,0,1.634,8.856,1.232,1.232,0,1,1-2.309.86A27.352,27.352,0,0,1,7.892,35.1a18.189,18.189,0,0,1,1.683-7.947A20.4,20.4,0,0,1,28.024,15.865c11.165,0,20.254,8.635,20.254,19.247a7.574,7.574,0,0,1-15.132,0,4.965,4.965,0,0,0-5.11-4.778,4.957,4.957,0,0,0-5.11,4.778A15.541,15.541,0,0,0,27.52,46.192a16.572,16.572,0,0,0,8.045,4.532,1.225,1.225,0,0,1-.319,2.407Z" transform="translate(613.003 721.991)" fill="#ea4335"/>
    </g>
    <g id="Group_83" data-name="Group 83" transform="translate(783.313 684.893)">
      <path id="Path_47" data-name="Path 47" d="M19.243,0A19.243,19.243,0,1,1,0,19.243,19.243,19.243,0,0,1,19.243,0Z" transform="translate(0 0)" fill="#191919"/>
      <g id="Group_81" data-name="Group 81" transform="translate(3.934 3.4)">
        <g id="_24px" data-name="24px" transform="translate(0 0)">
          <g id="refresh" transform="translate(15.702 0) rotate(45)">
            <path id="Path_21" data-name="Path 21" d="M6.713,21.628a11.3,11.3,0,1,1,8.04.433l-.57-1.8A9.422,9.422,0,1,0,5.874,19Z" transform="translate(0 0)" fill="#fff" fill-rule="evenodd"/>
            <path id="Path_22" data-name="Path 22" d="M5.664,5.664H0V7.552H6.607l.943-.943V0H5.664Z" transform="translate(0.126 14.654)" fill="#fff" fill-rule="evenodd"/>
          </g>
        </g>
        <g id="Group_80" data-name="Group 80" transform="translate(14.907 11.169)">
          <line id="Line_36" data-name="Line 36" y2="6.075" transform="translate(0 0)" fill="none" stroke="#fff" stroke-linecap="round" stroke-width="2"/>
          <line id="Line_37" data-name="Line 37" x1="3.397" y1="2.075" transform="translate(0 6.075)" fill="none" stroke="#fff" stroke-linecap="round" stroke-width="2"/>
        </g>
      </g>
    </g>
  </g>
</svg>
