<svg xmlns="http://www.w3.org/2000/svg" width="110" height="110" viewBox="0 0 110 110">
  <g id="Check_Update" data-name="Check Update" transform="translate(5.192 110) rotate(-90)">
    <path id="Path_21" data-name="Path 21" d="M30.984.012A51,51,0,0,0,1.61,59.6,54,54,0,0,0,56.256,99.993c8.05-.355,8.629-1.441,8.576-5.208-.025-1.78.478-4.576-4.857-3.821A45.114,45.114,0,0,1,12.159,63.773,42.6,42.6,0,0,1,27.172,12.12Z" transform="translate(0.484 4.763)" fill="#4285f4" fill-rule="evenodd"/>
    <path id="Path_22" data-name="Path 22" d="M26.526,8.935.083,8.694,0,0,30.847.282l4.446,4.385L35.584,35.1l-8.809-.08Z" transform="translate(0 0.008)" fill="#34a853" fill-rule="evenodd"/>
    <path id="Path_21-2" data-name="Path 21" d="M30.961,0A51,51,0,0,0,1.591,59.585a54,54,0,0,0,54.64,40.384c8.05-.354,8.463-1.281,8.414-4.764-.025-1.78.639-5.019-4.695-4.263A45.109,45.109,0,0,1,12.139,63.753,42.591,42.591,0,0,1,27.15,12.106Z" transform="translate(109.497 94.842) rotate(-180)" fill="#ea4335" fill-rule="evenodd"/>
    <path id="Path_22-2" data-name="Path 22" d="M26.523,8.934.083,8.693,0,0,30.844.282l4.446,4.384.291,30.428-8.808-.08Z" transform="translate(110 99.608) rotate(-180)" fill="#fbbc05" fill-rule="evenodd"/>
  </g>
</svg>
