<svg xmlns="http://www.w3.org/2000/svg" width="41" height="41" viewBox="0 0 41 41">
  <path id="checkmark" data-name="Check" d="M-5949.5,41a20.367,20.367,0,0,1-14.5-6,20.365,20.365,0,0,1-6-14.5A20.363,20.363,0,0,1-5964,6a20.366,20.366,0,0,1,14.5-6A20.366,20.366,0,0,1-5935,6a20.367,20.367,0,0,1,6,14.5,20.369,20.369,0,0,1-6,14.5A20.364,20.364,0,0,1-5949.5,41Zm-10.457-21.6a2,2,0,0,0-1.426.591,2.021,2.021,0,0,0,0,2.851l6.179,6.179c.04.04.083.079.13.118a1.4,1.4,0,0,0,.108.118,1.67,1.67,0,0,0,1.188.493,1.669,1.669,0,0,0,1.188-.493l15.208-15.207a1.685,1.685,0,0,0,0-2.378,1.671,1.671,0,0,0-1.187-.491,1.671,1.671,0,0,0-1.187.491L-5953.3,25.219l-5.228-5.227A2,2,0,0,0-5959.956,19.4Z" transform="translate(5970)" fill="#4285f4"/>
</svg>
