<?xml version="1.0" encoding="UTF-8" standalone="no"?>
<svg
     xmlns:dc="http://purl.org/dc/elements/1.1/"
     xmlns:cc="http://creativecommons.org/ns#"
     xmlns:rdf="http://www.w3.org/1999/02/22-rdf-syntax-ns#"
     xmlns:svg="http://www.w3.org/2000/svg"
     xmlns="http://www.w3.org/2000/svg"
     version="1.1"
     id="svg72699"
     viewBox="0 0 300 429.48716"
     height="429.48715"
     width="300">
    <defs
         id="defs72701">
        <clipPath
             clipPathUnits="userSpaceOnUse"
             id="clipPath17476">
            <path
                 d="m 640.547,230.558 11.505,0 0,16.521 -11.505,0 0,-16.521 z"
                 id="path17478" />
        </clipPath>
    </defs>
    <metadata
         id="metadata72704">
        <rdf:RDF>
            <cc:Work
                 rdf:about="">
                <dc:format>image/svg+xml</dc:format>
                <dc:type
                     rdf:resource="http://purl.org/dc/dcmitype/StillImage" />
                <dc:title></dc:title>
            </cc:Work>
        </rdf:RDF>
    </metadata>
    <g
         transform="translate(-325.45196,-141.38025)"
         id="layer1">
        <g
             id="g17472"
             transform="matrix(25.816883,0,0,-25.816883,-16209.975,6521.6873)">
            <g
                 id="g17474"
                 clip-path="url(#clipPath17476)">
                <g
                     id="g17480"
                     transform="translate(646.3034,236.3789)">
                    <path
                         d="M 0,0 C 1.364,0 2.461,1.106 2.461,2.469 L 2.469,8.231 C 2.469,9.596 1.364,10.7 0,10.7 -1.363,10.7 -2.469,9.596 -2.469,8.231 l 0,-5.762 C -2.469,1.106 -1.363,0 0,0"
                         style="fill:#4285f4;fill-opacity:1;fill-rule:nonzero;stroke:none"
                         id="path17482" />
                </g>
                <g
                     id="g17484"
                     transform="translate(645.4803,233.1492)">
                    <path
                         d="m 0,0 0,0 0,-2.59 1.646,0 0,2.562 C 1.378,-0.066 1.107,-0.064 0.828,-0.064 0.547,-0.064 0.271,-0.039 0,0"
                         style="fill:#34a853;fill-opacity:1;fill-rule:nonzero;stroke:none"
                         id="path17486" />
                </g>
                <g
                     id="g17488"
                     transform="translate(643.3809,235.9115)">
                    <path
                         d="m 0,0 c -0.735,0.742 -1.191,1.652 -1.191,2.878 l -1.643,0 c 0,-1.646 0.644,-2.999 1.685,-4.041 l 0.012,0.011 c -0.004,0.004 -0.008,0.007 -0.012,0.011 L 0,0 Z"
                         style="fill:#fbbc05;fill-opacity:1;fill-rule:nonzero;stroke:none"
                         id="path17490" />
                </g>
                <g
                     id="g17492"
                     transform="translate(650.4081,238.79)">
                    <path
                         d="m 0,0 c 0,-2.058 -1.829,-4.086 -4.102,-4.086 -1.137,0 -2.166,0.476 -2.911,1.222 L -7.027,-2.878 -8.176,-4.02 c 0.004,-0.003 0.008,-0.007 0.012,-0.01 0.857,-0.854 1.982,-1.429 3.236,-1.611 0.272,-0.039 0.547,-0.064 0.828,-0.064 0.28,0 0.55,-0.002 0.818,0.036 C -0.491,-5.27 1.643,-2.881 1.643,0 L 0,0 Z"
                         style="fill:#ea4335;fill-opacity:1;fill-rule:nonzero;stroke:none"
                         id="path17494" />
                </g>
            </g>
        </g>
    </g>
</svg>
