<svg xmlns="http://www.w3.org/2000/svg" width="141" height="141" viewBox="0 0 141 141">
  <g id="Light_Mode" data-name="Light Mode" transform="translate(-1245 -450)">
    <rect id="Rectangle_13" data-name="Rectangle 13" width="141" height="141" rx="40" transform="translate(1245 450)" fill="#303030"/>
    <path id="ic_wb_sunny_24px" d="M19.789,14.544,13.917,8.7l-4.6,4.6,5.839,5.839Zm-9,18.463H1v6.524h9.786ZM40.144.55H33.62v9.623h6.524V.55ZM64.446,13.3l-4.6-4.6-5.839,5.839,4.6,4.6ZM53.975,57.994l5.839,5.872,4.6-4.6-5.872-5.839-4.567,4.567Zm9-24.987v6.524h9.786V33.007ZM36.882,16.7A19.572,19.572,0,1,0,56.454,36.269,19.587,19.587,0,0,0,36.882,16.7ZM33.62,71.988h6.524V62.365H33.62ZM9.318,59.233l4.6,4.6,5.839-5.872-4.6-4.6Z" transform="translate(1278.236 483.912)" fill="#fbbc05"/>
  </g>
</svg>
