<svg xmlns="http://www.w3.org/2000/svg" width="308.072" height="66" viewBox="0 0 308.072 66">
  <g id="first-time" transform="translate(-827 -600)">
    <g id="Group_34" data-name="Group 34" transform="translate(-118 -16)">
      <path id="Path_36" data-name="Path 36" d="M-16.67.076,195.289,0a9.894,9.894,0,0,1,9.783,10V45a9.894,9.894,0,0,1-9.783,10H9.4A9.893,9.893,0,0,1-.38,45V18.969C-.38,13.446-22.073.076-16.67.076Z" transform="translate(1048 622)" fill="rgba(255,255,255,0.07)"/>
      <path id="Path_37" data-name="Path 37" d="M3.28,0H1.44V-14.32H3.28v6.14h7.16v-6.14h1.84V0H10.44V-6.46H3.28ZM17.22-13.18a1.253,1.253,0,0,1-.38.92,1.253,1.253,0,0,1-.92.38,1.253,1.253,0,0,1-.92-.38,1.253,1.253,0,0,1-.38-.92A1.253,1.253,0,0,1,15-14.1a1.253,1.253,0,0,1,.92-.38,1.253,1.253,0,0,1,.92.38A1.253,1.253,0,0,1,17.22-13.18ZM16.84-9.8V0H15V-9.8Zm4.32,5.36H19.72l-.2-5.36v-4.52h1.84V-9.8Zm.64,3.2a1.326,1.326,0,0,1-.39.96,1.3,1.3,0,0,1-.97.4,1.309,1.309,0,0,1-.96-.4,1.309,1.309,0,0,1-.4-.96,1.3,1.3,0,0,1,.4-.97,1.326,1.326,0,0,1,.96-.39,1.317,1.317,0,0,1,.97.39A1.317,1.317,0,0,1,21.8-1.24ZM30.44,0H28.6V-14.32h1.84v6.14H37.6v-6.14h1.84V0H37.6V-6.46H30.44Zm11-4.9a5.184,5.184,0,0,1,1.42-3.74,4.84,4.84,0,0,1,3.62-1.48,4.775,4.775,0,0,1,3.6,1.48A5.145,5.145,0,0,1,51.52-4.9a5.1,5.1,0,0,1-1.44,3.74A4.775,4.775,0,0,1,46.48.32a4.84,4.84,0,0,1-3.62-1.48A5.184,5.184,0,0,1,41.44-4.9Zm1.84,0a3.589,3.589,0,0,0,.92,2.56,3,3,0,0,0,2.28.98,3,3,0,0,0,2.28-.98,3.589,3.589,0,0,0,.92-2.56,3.561,3.561,0,0,0-.92-2.54,3.014,3.014,0,0,0-2.28-1,3.014,3.014,0,0,0-2.28,1A3.561,3.561,0,0,0,43.28-4.9Zm23.6-4.9L63.72,0H61.84L59.4-7.52,56.98,0H55.12L51.96-9.8h1.92l2.18,7.4h.02L58.5-9.8h1.9l2.42,7.4h.02L65-9.8ZM76.96.32a4.84,4.84,0,0,1-3.62-1.48A5.273,5.273,0,0,1,71.92-4.9a5.184,5.184,0,0,1,1.42-3.74,4.84,4.84,0,0,1,3.62-1.48,4.6,4.6,0,0,1,2.62.75A4.574,4.574,0,0,1,81.26-7.3l-1.68.7a2.765,2.765,0,0,0-2.74-1.84,2.844,2.844,0,0,0-2.18,1.02,3.672,3.672,0,0,0-.9,2.52,3.672,3.672,0,0,0,.9,2.52,2.844,2.844,0,0,0,2.18,1.02A2.881,2.881,0,0,0,79.68-3.2l1.64.7A4.39,4.39,0,0,1,79.63-.43,4.777,4.777,0,0,1,76.96.32ZM84.16-3a1.469,1.469,0,0,0,.61,1.2,2.245,2.245,0,0,0,1.43.48,2.932,2.932,0,0,0,2.07-.86,2.693,2.693,0,0,0,.91-2.02,3.78,3.78,0,0,0-2.4-.68,3.118,3.118,0,0,0-1.87.54A1.6,1.6,0,0,0,84.16-3Zm2.38-7.12a4.561,4.561,0,0,1,3.22,1.09,3.87,3.87,0,0,1,1.18,2.99V0H89.18V-1.36H89.1A3.51,3.51,0,0,1,86.06.32a3.952,3.952,0,0,1-2.71-.96,3.066,3.066,0,0,1-1.09-2.4,2.914,2.914,0,0,1,1.15-2.42,4.846,4.846,0,0,1,3.07-.9,5.432,5.432,0,0,1,2.7.6v-.42a2.094,2.094,0,0,0-.76-1.63,2.607,2.607,0,0,0-1.78-.67,2.82,2.82,0,0,0-2.44,1.3L82.58-8.2A4.517,4.517,0,0,1,86.54-10.12Zm6.48.32h1.76v1.36h.08a3.272,3.272,0,0,1,1.29-1.2,3.7,3.7,0,0,1,1.81-.48,3.621,3.621,0,0,1,2.77,1.03,4.111,4.111,0,0,1,.97,2.93V0H99.86V-6.04a2.163,2.163,0,0,0-2.42-2.4,2.3,2.3,0,0,0-1.84.89,3.224,3.224,0,0,0-.74,2.13V0H93.02ZM110.42,0h-1.84V-14.32h1.84Zm6.96-14.32h1.84V-9.8l-.08,1.36h.08a3.272,3.272,0,0,1,1.29-1.2,3.7,3.7,0,0,1,1.81-.48,3.621,3.621,0,0,1,2.77,1.03,4.111,4.111,0,0,1,.97,2.93V0h-1.84V-5.8q0-2.64-2.34-2.64a2.366,2.366,0,0,0-1.89.93,3.3,3.3,0,0,0-.77,2.17V0h-1.84ZM132.62.32a4.688,4.688,0,0,1-3.56-1.48,5.226,5.226,0,0,1-1.4-3.74,5.323,5.323,0,0,1,1.36-3.73,4.5,4.5,0,0,1,3.48-1.49,4.473,4.473,0,0,1,3.47,1.41,5.638,5.638,0,0,1,1.29,3.95l-.02.2h-7.7a3.193,3.193,0,0,0,.96,2.32,3.071,3.071,0,0,0,2.2.88,3.062,3.062,0,0,0,2.76-1.76l1.64.8a4.888,4.888,0,0,1-1.83,1.94A5.061,5.061,0,0,1,132.62.32Zm-2.94-6.4h5.62a2.44,2.44,0,0,0-.83-1.69,2.905,2.905,0,0,0-2.01-.67,2.667,2.667,0,0,0-1.79.64A3.057,3.057,0,0,0,129.68-6.08Zm11.1-8.24V0h-1.84V-14.32Zm7.04,12.96a2.869,2.869,0,0,0,2.22-1,3.608,3.608,0,0,0,.9-2.54,3.653,3.653,0,0,0-.9-2.54,2.869,2.869,0,0,0-2.22-1,2.891,2.891,0,0,0-2.24,1,3.7,3.7,0,0,0-.88,2.54,3.733,3.733,0,0,0,.88,2.56A2.917,2.917,0,0,0,147.82-1.36Zm.3,1.68a4.226,4.226,0,0,1-1.97-.46,3.447,3.447,0,0,1-1.37-1.22h-.08L144.78,0V4.32h-1.84V-9.8h1.76v1.36h.08a3.447,3.447,0,0,1,1.37-1.22,4.226,4.226,0,0,1,1.97-.46A4.209,4.209,0,0,1,151.4-8.6a5.353,5.353,0,0,1,1.38,3.7,5.307,5.307,0,0,1-1.38,3.7A4.209,4.209,0,0,1,148.12.32Zm10.34-4.76h-1.88v-.94a3.14,3.14,0,0,1,.33-1.46,5.956,5.956,0,0,1,1.26-1.5,8.529,8.529,0,0,0,1.26-1.36,2.023,2.023,0,0,0,.33-1.14,1.922,1.922,0,0,0-.6-1.49,2.3,2.3,0,0,0-1.62-.55,2.377,2.377,0,0,0-2.36,1.92l-1.72-.72a4.6,4.6,0,0,1,1.56-2.14,4.051,4.051,0,0,1,2.52-.82,4.159,4.159,0,0,1,2.95,1.07,3.565,3.565,0,0,1,1.15,2.73,3.317,3.317,0,0,1-.42,1.61,7.768,7.768,0,0,1-1.58,1.83,3.033,3.033,0,0,0-1.18,2.1Zm.42,3.2a1.326,1.326,0,0,1-.39.96,1.3,1.3,0,0,1-.97.4,1.309,1.309,0,0,1-.96-.4,1.309,1.309,0,0,1-.4-.96,1.3,1.3,0,0,1,.4-.97,1.326,1.326,0,0,1,.96-.39,1.317,1.317,0,0,1,.97.39A1.317,1.317,0,0,1,158.88-1.24Z" transform="translate(1068 658)" fill="rgba(255,255,255,0.5)"/>
    </g>
    <circle id="Ellipse_19" data-name="Ellipse 19" cx="33" cy="33" r="33" transform="translate(827 600)" fill="#fff"/>
    <g id="Google_Assistant_logo" transform="translate(838.734 612.318)">
      <circle id="Ellipse_1" data-name="Ellipse 1" cx="13.169" cy="13.169" r="13.169" transform="translate(0)" fill="#4285f4"/>
      <path id="Path_1" data-name="Path 1" d="M453.829,153.865a2.677,2.677,0,1,1-2.677-2.677A2.677,2.677,0,0,1,453.829,153.865Z" transform="translate(-410.683 -139.411)" fill="#34a853"/>
      <path id="Path_2" data-name="Path 2" d="M338.488,202.278a5.353,5.353,0,1,1-5.353-5.353A5.353,5.353,0,0,1,338.488,202.278Z" transform="translate(-300.16 -181.294)" fill="#ea4335"/>
      <path id="Path_3" data-name="Path 3" d="M327.924,354.536a6.424,6.424,0,1,1-6.424-6.424A6.423,6.423,0,0,1,327.924,354.536Z" transform="translate(-288.524 -319.74)" fill="#fbbc05"/>
    </g>
  </g>
</svg>
