<svg xmlns="http://www.w3.org/2000/svg" width="25.536" height="26.081" viewBox="0 0 25.536 26.081">
  <path id="ic_settings_48px" d="M25.2,17.215a9.451,9.451,0,0,0,.084-1.174,9.452,9.452,0,0,0-.084-1.174l2.547-1.993a.6.6,0,0,0,.144-.771L25.487,7.931a.6.6,0,0,0-.734-.259l-3,1.21A9.136,9.136,0,0,0,19.719,7.7l-.452-3.191a.619.619,0,0,0-.6-.506H13.85a.608.608,0,0,0-.6.506L12.8,7.7a8.91,8.91,0,0,0-2.035,1.186l-3-1.21a.6.6,0,0,0-.734.259L4.627,12.1a.6.6,0,0,0,.144.771l2.541,1.993a9.452,9.452,0,0,0-.084,1.174,9.451,9.451,0,0,0,.084,1.174L4.771,19.207a.6.6,0,0,0-.144.771L7.035,24.15a.6.6,0,0,0,.734.259l3-1.21A9.136,9.136,0,0,0,12.8,24.385l.452,3.191a.608.608,0,0,0,.6.506h4.816a.608.608,0,0,0,.6-.506l.452-3.191A8.91,8.91,0,0,0,21.748,23.2l3,1.21a.6.6,0,0,0,.734-.259l2.408-4.172a.6.6,0,0,0-.144-.771Zm-8.946,3.04a4.214,4.214,0,1,1,4.214-4.214A4.211,4.211,0,0,1,16.258,20.255Z" transform="translate(-3.492 -3)" fill="none" stroke="#707070" stroke-width="2"/>
</svg>
