<svg xmlns="http://www.w3.org/2000/svg" width="28" height="28" viewBox="0 0 28 28" fill="#707070">
  <g id="Group_85" data-name="Group 85" transform="translate(-119 -222)">
    <rect id="Rectangle_22" data-name="Rectangle 22" width="28" height="28" transform="translate(119 222)" fill="rgba(51,51,51,0)"/>
    <path id="close-converted" d="M5.506,5.53l-.675.677,3.9,3.9,3.9,3.9-3.9,3.9-3.9,3.9.689.688.688.689,3.9-3.9,3.9-3.9,3.9,3.9,3.9,3.9.688-.689.689-.688-3.9-3.9-3.9-3.9,3.9-3.9,3.9-3.9-.689-.688-.688-.689-3.9,3.9-3.9,3.9L10.115,8.738C7.978,6.6,6.219,4.853,6.206,4.853s-.328.3-.7.677" transform="translate(119 222)" fill-rule="evenodd"/>
  </g>
</svg>
