<svg xmlns="http://www.w3.org/2000/svg" width="28" height="28" viewBox="0 0 28 28" fill="#707070">
  <g id="Group_90" data-name="Group 90" transform="translate(-119 -222)">
    <rect id="Rectangle_22" data-name="Rectangle 22" width="28" height="28" transform="translate(119 222)" fill="rgba(51,51,51,0)"/>
    <path id="collapse-converted" d="M18.935,7.689,16.66,9.963V8.675a9.81,9.81,0,0,0-.053-1.446.978.978,0,0,0-1.742-.237l-.142.2v5.49l.14.2a1.205,1.205,0,0,0,.348.309l.208.109,2.693-.013,2.693-.012.2-.142a.979.979,0,0,0-.237-1.742,9.809,9.809,0,0,0-1.446-.053H18.037l2.275-2.275,2.275-2.276L21.9,6.1l-.689-.688L18.935,7.689M7.188,14.752a.988.988,0,0,0,.041,1.854,9.326,9.326,0,0,0,1.446.054H9.963L7.688,18.935,5.413,21.21,6.1,21.9l.689.688,2.275-2.275,2.275-2.275v1.288a9.326,9.326,0,0,0,.054,1.446.916.916,0,0,0,.444.54.975.975,0,0,0,1.3-.3l.142-.2v-5.49l-.14-.2a1.175,1.175,0,0,0-.346-.307l-.206-.109-2.641,0c-1.619,0-2.685.021-2.756.049" transform="translate(119 222)" fill-rule="evenodd"/>
  </g>
</svg>
