<svg xmlns="http://www.w3.org/2000/svg" width="28" height="28" viewBox="0 0 28 28">
  <g id="Group_89" data-name="Group 89" transform="translate(-119 -222)">
    <path id="Path_49" data-name="Path 49" d="M0,0H28V28H0Z" transform="translate(119 222)" fill="rgba(51,51,51,0)"/>
    <path id="ic_settings_48px" d="M26.258,17.513a9.408,9.408,0,0,0,.089-1.2,9.409,9.409,0,0,0-.089-1.2l2.677-2.038a.6.6,0,0,0,.152-.788L26.556,8.02a.635.635,0,0,0-.772-.265L22.632,8.993A9.668,9.668,0,0,0,20.494,7.78l-.475-3.263A.646.646,0,0,0,19.386,4H14.324a.634.634,0,0,0-.626.517L13.223,7.78a9.429,9.429,0,0,0-2.139,1.213L7.934,7.755a.642.642,0,0,0-.772.265L4.631,12.287a.606.606,0,0,0,.152.788l2.67,2.038a9.409,9.409,0,0,0-.089,1.2,9.409,9.409,0,0,0,.089,1.2l-2.67,2.038a.6.6,0,0,0-.152.788l2.531,4.266a.634.634,0,0,0,.772.265l3.151-1.237a9.669,9.669,0,0,0,2.139,1.213l.475,3.263a.634.634,0,0,0,.626.517h5.062a.634.634,0,0,0,.626-.517l.475-3.263a9.429,9.429,0,0,0,2.139-1.213l3.151,1.237a.642.642,0,0,0,.772-.265l2.531-4.266a.606.606,0,0,0-.152-.788Zm-9.4,3.109a4.311,4.311,0,1,1,4.429-4.31A4.367,4.367,0,0,1,16.855,20.622Z" transform="translate(116.142 219.687)" fill="none" stroke="#707070" stroke-width="2"/>
  </g>
</svg>
