<svg xmlns="http://www.w3.org/2000/svg" width="26" height="26" viewBox="0 0 26 26" stroke="#707070">
  <path id="ic_settings_48px" d="M25.706,17.17A9.169,9.169,0,0,0,25.793,16a9.17,9.17,0,0,0-.086-1.17l2.609-1.986a.588.588,0,0,0,.148-.768L26,7.918a.618.618,0,0,0-.752-.258L22.173,8.866a9.423,9.423,0,0,0-2.084-1.182L19.626,4.5a.63.63,0,0,0-.617-.5H14.076a.618.618,0,0,0-.611.5L13,7.684a9.19,9.19,0,0,0-2.084,1.182L7.848,7.66a.625.625,0,0,0-.752.258L4.629,12.076a.59.59,0,0,0,.148.768l2.6,1.986A9.17,9.17,0,0,0,7.293,16a9.169,9.169,0,0,0,.086,1.17l-2.6,1.986a.588.588,0,0,0-.148.768L7.1,24.082a.618.618,0,0,0,.752.258l3.071-1.206A9.423,9.423,0,0,0,13,24.316l.463,3.18a.618.618,0,0,0,.611.5h4.933a.618.618,0,0,0,.611-.5l.463-3.18a9.19,9.19,0,0,0,2.084-1.182l3.071,1.206a.625.625,0,0,0,.752-.258l2.467-4.158a.59.59,0,0,0-.148-.768ZM16.543,20.2A4.2,4.2,0,1,1,20.859,16,4.256,4.256,0,0,1,16.543,20.2Z" transform="translate(-3.489 -3)" fill="none" stroke-width="2"/>
</svg>
