<svg xmlns="http://www.w3.org/2000/svg" width="28" height="28" viewBox="0 0 28 28" fill="#707070">
  <g id="Group_89" data-name="Group 89" transform="translate(-119 -222)">
    <path id="Path_49" data-name="Path 49" d="M0,0H28V28H0Z" transform="translate(119 222)" fill="rgba(51,51,51,0)"/>
    <path id="Path_50" data-name="Path 50" d="M15.6,2.25a14.579,14.579,0,0,1,3.017.35,1.037,1.037,0,0,1,.8.9l.235,2.111a1.914,1.914,0,0,0,2.664,1.543l1.937-.85a1.037,1.037,0,0,1,1.175.241,13.539,13.539,0,0,1,3.047,5.243,1.037,1.037,0,0,1-.375,1.141l-1.717,1.266a1.909,1.909,0,0,0,0,3.078l1.719,1.265a1.037,1.037,0,0,1,.376,1.142,13.545,13.545,0,0,1-3.047,5.243,1.037,1.037,0,0,1-1.172.242l-1.945-.853a1.908,1.908,0,0,0-2.663,1.54l-.234,2.11a1.037,1.037,0,0,1-.791.895,13.16,13.16,0,0,1-6.092,0,1.037,1.037,0,0,1-.791-.895l-.232-2.107a1.911,1.911,0,0,0-2.663-1.535l-1.944.852a1.037,1.037,0,0,1-1.174-.242,13.547,13.547,0,0,1-3.047-5.248,1.037,1.037,0,0,1,.376-1.142l1.719-1.266a1.908,1.908,0,0,0,0-3.078L3.062,12.928a1.037,1.037,0,0,1-.375-1.142A13.54,13.54,0,0,1,5.735,6.543,1.037,1.037,0,0,1,6.91,6.3l1.936.85a1.918,1.918,0,0,0,2.668-1.546l.235-2.11a1.037,1.037,0,0,1,.806-.9A14.833,14.833,0,0,1,15.6,2.25Zm0,2.074a12.63,12.63,0,0,0-1.872.162l-.151,1.351A3.99,3.99,0,0,1,8.012,9.052L6.77,8.508a11.466,11.466,0,0,0-1.864,3.2l1.1.812a3.983,3.983,0,0,1,0,6.419l-1.1.813a11.483,11.483,0,0,0,1.864,3.21l1.251-.549a3.985,3.985,0,0,1,5.554,3.2l.152,1.36a11.169,11.169,0,0,0,3.715,0l.152-1.36a3.983,3.983,0,0,1,5.555-3.21l1.251.548a11.47,11.47,0,0,0,1.862-3.2l-1.1-.813a3.983,3.983,0,0,1,0-6.419l1.1-.812a11.466,11.466,0,0,0-1.864-3.2l-1.239.543a3.987,3.987,0,0,1-5.562-3.213l-.152-1.349A12.427,12.427,0,0,0,15.6,4.325Zm-.017,6.222A5.185,5.185,0,1,1,10.4,15.73a5.185,5.185,0,0,1,5.185-5.185Zm0,2.074a3.111,3.111,0,1,0,3.111,3.111A3.111,3.111,0,0,0,15.581,12.62Z" transform="translate(117.417 220.27)"/>
  </g>
</svg>
